<svg width="41" height="43" viewBox="0 0 41 43" fill="none" xmlns="http://www.w3.org/2000/svg">
<path fill-rule="evenodd" clip-rule="evenodd" d="M20.1255 34.5C21.0563 34.5014 21.9747 34.7141 22.8113 35.1221C23.648 35.53 24.3811 36.1225 24.9555 36.855C24.3868 37.5955 23.6554 38.1954 22.8179 38.6082C21.9804 39.021 21.0592 39.2357 20.1255 39.2357C19.1918 39.2357 18.2706 39.021 17.4331 38.6082C16.5956 38.1954 15.8642 37.5955 15.2955 36.855C15.8669 36.1192 16.5994 35.5243 17.4367 35.116C18.2741 34.7077 19.1939 34.497 20.1255 34.5ZM26.2605 33C26.2535 33.3267 26.2235 33.6525 26.1705 33.975C24.5261 32.4516 22.3671 31.6053 20.1255 31.6053C17.8839 31.6053 15.7249 32.4516 14.0805 33.975C14.0269 33.6627 13.9968 33.3468 13.9905 33.03C13.9905 31.4029 14.6369 29.8424 15.7874 28.6919C16.938 27.5414 18.4984 26.895 20.1255 26.895C21.7526 26.895 23.3131 27.5414 24.4636 28.6919C25.6142 29.8424 26.2605 31.4029 26.2605 33.03V33ZM13.4805 9.79501H26.7555L20.1255 22.5L13.4805 9.79501ZM33.3855 3.15001C33.464 3.20007 33.5392 3.25519 33.6105 3.31501L36.7755 6.46501C37.1258 6.80827 37.3526 7.25788 37.4205 7.74362C37.4883 8.22937 37.3934 8.72391 37.1505 9.15001L26.9355 27.3C25.7327 25.8652 24.1039 24.8511 22.2855 24.405L33.3855 3.15001ZM6.86552 3.15001L17.9655 24.405C16.1446 24.8549 14.512 25.868 13.3005 27.3L3.10052 9.15001C2.85578 8.72548 2.75838 8.23191 2.8235 7.74624C2.88862 7.26056 3.1126 6.81008 3.46052 6.46501L6.62552 3.31501C6.69839 3.25441 6.77912 3.20395 6.86552 3.16501V3.15001ZM9.86552 2.80501H30.4155L28.2255 6.99001H12.0255L9.86552 2.80501ZM7.85552 1.3511e-05C6.654 0.00291113 5.50151 0.476831 4.64552 1.32001L1.48052 4.50001C0.70657 5.27209 0.204636 6.27487 0.050412 7.35714C-0.103812 8.43941 0.0980378 9.54249 0.625521 10.5L11.6655 30.12C11.3226 31.0422 11.1399 32.0162 11.1255 33C11.0713 34.338 11.3164 35.6713 11.8428 36.9025C12.3693 38.1338 13.1638 39.2321 14.1686 40.1173C15.1734 41.0026 16.363 41.6524 17.6508 42.0195C18.9386 42.3866 20.2921 42.4617 21.6126 42.2394C22.9332 42.017 24.1874 41.5028 25.284 40.7341C26.3805 39.9655 27.2917 38.9619 27.9512 37.7964C28.6106 36.631 29.0017 35.333 29.0959 33.9972C29.19 32.6614 28.9849 31.3215 28.4955 30.075L39.6255 10.5C40.1592 9.54625 40.3674 8.44449 40.2185 7.36176C40.0696 6.27902 39.5718 5.27434 38.8005 4.50001L35.5905 1.32001C35.1713 0.90024 34.6732 0.567511 34.1248 0.340973C33.5765 0.114435 32.9888 -0.00144025 32.3955 1.3511e-05H7.85552Z" fill="#FFA800"/>
</svg>
