<svg width="35" height="42" viewBox="0 0 35 42" fill="none" xmlns="http://www.w3.org/2000/svg">
<g clip-path="url(#clip0_1_71)">
<path d="M6.27243 6.56563H28.7445C29.1648 6.56336 29.5814 6.64517 29.9701 6.80633C30.3589 6.96749 30.712 7.20479 31.0093 7.50452C31.3064 7.80424 31.5418 8.16043 31.7016 8.55247C31.8614 8.94451 31.9425 9.36462 31.9402 9.78849V35.5028C31.9425 35.9266 31.8614 36.3467 31.7016 36.7388C31.5418 37.1308 31.3064 37.487 31.0093 37.7867C30.712 38.0865 30.3589 38.3238 29.9701 38.4849C29.5814 38.6461 29.1648 38.7279 28.7445 38.7256H6.27243C5.8515 38.7302 5.4339 38.65 5.04412 38.4897C4.65434 38.3293 4.30023 38.0921 4.00257 37.7919C3.70491 37.4917 3.46969 37.1346 3.3107 36.7415C3.15171 36.3484 3.07216 35.9273 3.07671 35.5028V9.78849C3.07216 9.36398 3.15171 8.94283 3.3107 8.54975C3.46969 8.15666 3.70491 7.79954 4.00257 7.49936C4.30023 7.19917 4.65434 6.96195 5.04412 6.80161C5.4339 6.64127 5.8515 6.56104 6.27243 6.56563ZM6.27243 3.34277C5.44057 3.34949 4.6182 3.52167 3.85244 3.84946C3.08667 4.17724 2.39257 4.65418 1.80989 5.25296C1.22721 5.85173 0.767406 6.56057 0.456828 7.33886C0.14625 8.11715 -0.00900063 8.94959 -2.89463e-05 9.78849V35.5028C-0.000319191 37.1917 0.656706 38.8133 1.82972 40.0187C3.00274 41.2241 4.59802 41.917 6.27243 41.9485H28.7445C30.4189 41.917 32.0142 41.2241 33.1872 40.0187C34.3602 38.8133 35.0173 37.1917 35.017 35.5028V9.78849C35.0259 8.94959 34.8707 8.11715 34.5601 7.33886C34.2495 6.56057 33.7897 5.85173 33.2071 5.25296C32.6244 4.65418 31.9303 4.17724 31.1645 3.84946C30.3987 3.52167 29.5764 3.34949 28.7445 3.34277H6.27243Z" fill="#4583DA"/>
<path d="M9.4511 0C9.23742 0.00633584 9.02723 0.0563119 8.83325 0.146906C8.63927 0.2375 8.46552 0.366831 8.32251 0.527076C8.1795 0.687322 8.07021 0.875153 8.00124 1.07921C7.93227 1.28327 7.90505 1.49932 7.92123 1.71429V9.78857C7.92123 10.2159 8.08958 10.6258 8.38923 10.928C8.68889 11.2302 9.09531 11.4 9.51909 11.4C9.94287 11.4 10.3493 11.2302 10.649 10.928C10.9486 10.6258 11.117 10.2159 11.117 9.78857V1.68C11.1083 1.23718 10.93 0.814946 10.6194 0.501766C10.3089 0.188586 9.89019 0.00877121 9.4511 0Z" fill="#4583DA"/>
<path d="M7.80232 8.10864C7.59248 8.11652 7.38624 8.16601 7.19537 8.25427C7.0045 8.34253 6.83273 8.46784 6.68988 8.62305C6.54703 8.77825 6.43589 8.96031 6.36281 9.15884C6.28973 9.35736 6.25613 9.56846 6.26395 9.78007C6.27176 9.99169 6.32083 10.1997 6.40835 10.3922C6.49586 10.5847 6.62012 10.7579 6.77402 10.9019C6.92792 11.046 7.10845 11.1581 7.3053 11.2318C7.50215 11.3055 7.71147 11.3394 7.92131 11.3315H11.117C11.5408 11.3315 11.9472 11.1617 12.2469 10.8595C12.5465 10.5573 12.7149 10.1474 12.7149 9.72007C12.7149 9.29269 12.5465 8.88282 12.2469 8.58062C11.9472 8.27842 11.5408 8.10864 11.117 8.10864H7.80232Z" fill="#4583DA"/>
<path d="M25.4299 0C25.2162 0.00633584 25.006 0.0563119 24.812 0.146906C24.618 0.2375 24.4443 0.366831 24.3013 0.527076C24.1583 0.687322 24.049 0.875153 23.98 1.07921C23.911 1.28327 23.8838 1.49932 23.9 1.71429V9.78857C23.9 10.2159 24.0683 10.6258 24.368 10.928C24.6676 11.2302 25.0741 11.4 25.4978 11.4C25.9216 11.4 26.328 11.2302 26.6277 10.928C26.9274 10.6258 27.0957 10.2159 27.0957 9.78857V1.68C27.087 1.23718 26.9087 0.814946 26.5982 0.501766C26.2876 0.188586 25.8689 0.00877121 25.4299 0Z" fill="#4583DA"/>
<path d="M23.7639 8.10864C23.3401 8.12683 22.9409 8.31405 22.654 8.62911C22.3671 8.94417 22.216 9.36127 22.2341 9.78864C22.2521 10.216 22.4377 10.6187 22.7501 10.908C23.0625 11.1974 23.4761 11.3497 23.8999 11.3315H27.0956C27.5194 11.3315 27.9258 11.1617 28.2255 10.8595C28.5252 10.5573 28.6935 10.1474 28.6935 9.72007C28.6935 9.29269 28.5252 8.88282 28.2255 8.58062C27.9258 8.27842 27.5194 8.10864 27.0956 8.10864H23.6959H23.7639Z" fill="#4583DA"/>
<path d="M33.4701 14.5542H1.52979V17.7771H33.4701V14.5542Z" fill="#4583DA"/>
<path d="M17.4745 3.43397e-08C17.0237 3.43397e-08 16.5913 0.180612 16.2725 0.502103C15.9538 0.823594 15.7747 1.25963 15.7747 1.71429V8.10857C15.7747 8.56323 15.9538 8.99926 16.2725 9.32076C16.5913 9.64225 17.0237 9.82286 17.4745 9.82286C17.9254 9.82286 18.3577 9.64225 18.6765 9.32076C18.9953 8.99926 19.1744 8.56323 19.1744 8.10857V1.68C19.1655 1.23131 18.9825 0.804034 18.6646 0.489921C18.3468 0.175808 17.9195 -8.97301e-05 17.4745 3.43397e-08Z" fill="#4583DA"/>
<path d="M11.1171 15.3257C10.6662 15.3257 10.2339 15.5063 9.9151 15.8278C9.59631 16.1493 9.41722 16.5853 9.41722 17.04V38.8114C9.41722 39.2388 9.58557 39.6487 9.88522 39.9509C10.1849 40.2531 10.5913 40.4228 11.0151 40.4228C11.4389 40.4228 11.8453 40.2531 12.1449 39.9509C12.4446 39.6487 12.6129 39.2388 12.6129 38.8114V17.0057C12.6343 16.7942 12.6115 16.5805 12.5462 16.3784C12.4808 16.1763 12.3743 15.9902 12.2335 15.832C12.0926 15.6738 11.9206 15.5471 11.7283 15.4599C11.5361 15.3727 11.3279 15.327 11.1171 15.3257Z" fill="#4583DA"/>
<path d="M17.3725 22.7143C17.1414 22.6806 16.9057 22.6984 16.6822 22.7665C16.4586 22.8346 16.2526 22.9512 16.0785 23.1082C15.9045 23.2652 15.7667 23.4588 15.6749 23.6753C15.583 23.8919 15.5393 24.126 15.5469 24.3614C15.5545 24.5968 15.6131 24.8276 15.7187 25.0377C15.8242 25.2478 15.9742 25.4319 16.1579 25.5772C16.3417 25.7226 16.5548 25.8255 16.7823 25.8788C17.0097 25.9321 17.246 25.9345 17.4745 25.8858H19.1743C19.5428 25.8186 19.8762 25.623 20.1163 25.3332C20.3564 25.0433 20.4879 24.6777 20.4879 24.3C20.4879 23.9224 20.3564 23.5567 20.1163 23.2669C19.8762 22.9771 19.5428 22.7815 19.1743 22.7143H17.3725Z" fill="#4583DA"/>
<path d="M25.2939 22.7144C23.2541 22.7144 23.3901 25.9201 25.5489 25.9201H27.0958C27.3183 25.9433 27.5432 25.9192 27.7559 25.8492C27.9686 25.7793 28.1643 25.665 28.3305 25.5139C28.4966 25.3628 28.6294 25.1782 28.7203 24.9721C28.8113 24.766 28.8582 24.5429 28.8582 24.3172C28.8582 24.0916 28.8113 23.8685 28.7203 23.6624C28.6294 23.4562 28.4966 23.2716 28.3305 23.1205C28.1643 22.9694 27.9686 22.8552 27.7559 22.7853C27.5432 22.7153 27.3183 22.6911 27.0958 22.7144H25.2939Z" fill="#4583DA"/>
<path d="M17.4746 30.6687C17.0508 30.6687 16.6444 30.8385 16.3447 31.1407C16.0451 31.4429 15.8767 31.8528 15.8767 32.2801C15.8767 32.7075 16.0451 33.1174 16.3447 33.4196C16.6444 33.7218 17.0508 33.8916 17.4746 33.8916H19.1744C19.5982 33.8916 20.0046 33.7218 20.3043 33.4196C20.6039 33.1174 20.7723 32.7075 20.7723 32.2801C20.7723 31.8528 20.6039 31.4429 20.3043 31.1407C20.0046 30.8385 19.5982 30.6687 19.1744 30.6687H17.4746Z" fill="#4583DA"/>
<path d="M25.5489 30.6687C25.1251 30.6687 24.7187 30.8385 24.419 31.1407C24.1194 31.4429 23.951 31.8528 23.951 32.2801C23.951 32.7075 24.1194 33.1174 24.419 33.4196C24.7187 33.7218 25.1251 33.8916 25.5489 33.8916H27.0957C27.5195 33.8916 27.926 33.7218 28.2256 33.4196C28.5253 33.1174 28.6936 32.7075 28.6936 32.2801C28.6936 31.8528 28.5253 31.4429 28.2256 31.1407C27.926 30.8385 27.5195 30.6687 27.0957 30.6687H25.5489Z" fill="#4583DA"/>
<path d="M15.7747 8.10864C13.7349 8.24579 13.8539 11.5372 15.8937 11.3315H19.2934C19.7172 11.3315 20.1236 11.1617 20.4233 10.8595C20.7229 10.5573 20.8913 10.1474 20.8913 9.72007C20.8913 9.29269 20.7229 8.88282 20.4233 8.58062C20.1236 8.27842 19.7172 8.10864 19.2934 8.10864H15.7747Z" fill="#4583DA"/>
</g>
<defs>
<clipPath id="clip0_1_71">
<rect width="35" height="42" fill="white"/>
</clipPath>
</defs>
</svg>
