<svg width="67" height="67" viewBox="0 0 67 67" fill="none" xmlns="http://www.w3.org/2000/svg">
<path d="M19.5417 5.58331C16.4708 5.58331 13.9583 8.09581 13.9583 11.1666C13.9583 14.2375 16.4708 16.75 19.5417 16.75C22.6125 16.75 25.125 14.2654 25.125 11.1666C25.125 8.0679 22.6404 5.58331 19.5417 5.58331ZM13.9583 19.5416C10.8596 19.5416 8.375 22.0262 8.375 25.125V41.875H13.9583V61.4166H27.9167V32.3833L34.9796 44.6666H41.7913L44.6667 40.9258V61.4166H55.8333V47.4583H58.625V39.0833C58.625 35.9846 56.1404 33.5 53.0417 33.5H46.0625C44.3875 33.5 42.9079 34.2258 41.875 35.3983C40.9538 36.5708 39.9767 37.855 39.0833 39.0833H38.2179L27.9167 21.3841C27.47 20.6025 25.7392 19.5416 23.7292 19.5416H13.9583ZM50.25 22.3333C47.9329 22.3333 46.0625 24.2037 46.0625 26.5208C46.0625 28.8379 47.9329 30.7083 50.25 30.7083C52.5671 30.7083 54.4375 28.8379 54.4375 26.5208C54.4375 24.2037 52.5671 22.3333 50.25 22.3333Z" fill="white"/>
</svg>
