<svg width="42" height="42" viewBox="0 0 42 42" fill="none" xmlns="http://www.w3.org/2000/svg">
<g clip-path="url(#clip0_1_153)">
<path fill-rule="evenodd" clip-rule="evenodd" d="M2.805 19.1487L14.37 27.1558L9.465 32.0741C9.33118 32.2022 9.22423 32.3557 9.15039 32.5255C9.07656 32.6954 9.03731 32.8783 9.03496 33.0635C9.0326 33.2487 9.06718 33.4325 9.13667 33.6042C9.20616 33.7759 9.30917 33.9321 9.43969 34.0635C9.5702 34.195 9.72562 34.2992 9.89685 34.3699C10.0681 34.4407 10.2517 34.4767 10.437 34.4757C10.6223 34.4748 10.8055 34.4369 10.976 34.3644C11.1465 34.2919 11.3008 34.1862 11.43 34.0534L16.71 28.7753L20.205 31.2044C20.4385 31.3663 20.7159 31.453 21 31.453C21.2841 31.453 21.5615 31.3663 21.795 31.2044L25.29 28.7753L30.555 34.0534C30.685 34.1833 30.8394 34.2864 31.0092 34.3568C31.1791 34.4271 31.3611 34.4633 31.545 34.4633C31.7289 34.4633 31.9109 34.4271 32.0808 34.3568C32.2506 34.2864 32.405 34.1833 32.535 34.0534C32.665 33.9234 32.7681 33.7691 32.8385 33.5993C32.9089 33.4295 32.9451 33.2475 32.9451 33.0637C32.9451 32.8799 32.9089 32.6979 32.8385 32.5281C32.7681 32.3583 32.665 32.204 32.535 32.0741L27.63 27.1558L39.195 19.1487V34.5632C39.199 35.1715 39.0823 35.7745 38.8517 36.3375C38.6211 36.9005 38.2812 37.4121 37.8516 37.843C37.422 38.2738 36.9112 38.6153 36.3488 38.8476C35.7864 39.0799 35.1835 39.1985 34.575 39.1965H7.5C6.89147 39.1985 6.28858 39.0799 5.72617 38.8476C5.16377 38.6153 4.653 38.2738 4.2234 37.843C3.7938 37.4121 3.45388 36.9005 3.2233 36.3375C2.99271 35.7745 2.87603 35.1715 2.88 34.5632L2.805 19.1487ZM13.5 15.0851C13.153 15.1211 12.8317 15.2843 12.5981 15.5432C12.3645 15.8021 12.2352 16.1385 12.2352 16.4871C12.2352 16.8358 12.3645 17.1721 12.5981 17.4311C12.8317 17.69 13.153 17.8532 13.5 17.8891H28.5C28.6964 17.9095 28.8948 17.8883 29.0825 17.8272C29.2702 17.766 29.4429 17.666 29.5895 17.5339C29.7361 17.4017 29.8533 17.2403 29.9336 17.0599C30.0138 16.8796 30.0552 16.6845 30.0552 16.4871C30.0552 16.2898 30.0138 16.0947 29.9336 15.9143C29.8533 15.734 29.7361 15.5726 29.5895 15.4404C29.4429 15.3082 29.2702 15.2083 29.0825 15.1471C28.8948 15.0859 28.6964 15.0648 28.5 15.0851H13.5ZM34.5 14.4404L38.04 16.5696L34.5 19.0287V14.4404ZM7.5 14.4404V18.9388L3.99 16.5696L7.5 14.4404ZM13.32 7.49785C12.9421 7.52171 12.5891 7.69468 12.3387 7.97869C12.0884 8.26271 11.9611 8.63451 11.985 9.01231C12.0089 9.39011 12.1819 9.74296 12.466 9.99323C12.7501 10.2435 13.1221 10.3707 13.5 10.3468H21C21.3779 10.3468 21.7404 10.1968 22.0076 9.92961C22.2749 9.66247 22.425 9.30014 22.425 8.92234C22.425 8.54455 22.2749 8.18222 22.0076 7.91508C21.7404 7.64793 21.3779 7.49785 21 7.49785H13.32ZM26.91 5.23366L30.075 8.99732H26.91V5.23366ZM12 2.80453H24.165V10.4968C24.165 10.8706 24.3136 11.2291 24.578 11.4934C24.8424 11.7578 25.201 11.9063 25.575 11.9063H31.71V20.993L21 28.3404L10.335 20.993V4.49892C10.3339 4.28642 10.3759 4.0759 10.4584 3.88005C10.5409 3.6842 10.6622 3.50707 10.815 3.35933C10.9578 3.18337 11.1385 3.04204 11.3438 2.94595C11.549 2.84986 11.7734 2.80151 12 2.80453ZM25.5 0.00052953H12C10.8065 0.00052953 9.66193 0.474466 8.81802 1.31808C7.97411 2.16169 7.5 3.30587 7.5 4.49892V11.2465L0.765 15.2951C0.542527 15.4092 0.354432 15.5805 0.220001 15.7913C0.0855706 16.0021 0.00964177 16.2448 0 16.4946V34.5632C0.019762 36.5386 0.818654 38.4263 2.22304 39.8162C3.62743 41.206 5.5238 41.9856 7.5 41.9855H34.65C36.6001 41.9466 38.4583 41.1498 39.8305 39.7641C41.2027 38.3784 41.9809 36.5129 42 34.5632V16.4946C41.9985 16.2256 41.92 15.9627 41.7738 15.7369C41.6276 15.511 41.4198 15.3317 41.175 15.2201L34.5 11.1715V10.8567C34.5578 10.6302 34.5564 10.3926 34.496 10.1668C34.4356 9.94103 34.3182 9.73452 34.155 9.56711L26.655 0.570326C26.5252 0.386681 26.3516 0.238367 26.1499 0.138857C25.9481 0.0393483 25.7248 -0.00820115 25.5 0.00052953Z" fill="#FC1414"/>
</g>
<defs>
<clipPath id="clip0_1_153">
<rect width="42" height="42" fill="white"/>
</clipPath>
</defs>
</svg>
