<svg width="30" height="42" viewBox="0 0 30 42" fill="none" xmlns="http://www.w3.org/2000/svg">
<path d="M25.3029 20.4686C25.0457 20.2629 24.7371 20.0914 24.4629 19.9029C24.2743 19.68 24.0343 19.5257 23.7429 19.4229C21.9086 18.3772 19.8343 17.76 17.7771 17.76C17.3486 17.76 16.9543 17.9314 16.6457 18.2229L14.5543 20.3314L12.4457 18.24C12.1543 17.9314 11.7429 17.7772 11.3143 17.7772C9.24 17.7772 7.13143 18.4114 5.29714 19.4743C5.04 19.56 4.83428 19.7143 4.66286 19.9029C4.37143 20.0914 4.06286 20.2629 3.78857 20.4686C1.64571 22.1486 0 24.6 0 27.4629V32.3143C0 37.6629 4.35429 42 9.70286 42H19.4057C24.7543 42 29.1086 37.6629 29.1086 32.3143V27.4629C29.0914 24.6 27.4457 22.1486 25.3029 20.4686ZM18.2914 21.1714C19.1486 21.24 20.0571 21.4114 20.9314 21.7372L19.08 24.84L16.8514 22.6114L18.2914 21.1714ZM12.2743 22.6114L10.0457 24.84L8.19428 21.7372C9.06857 21.4286 9.97714 21.24 10.8343 21.1714L12.2743 22.6114ZM25.8686 32.3143C25.8686 35.9143 23.0057 38.76 19.4057 38.76H9.70286C6.08571 38.76 3.24 35.9143 3.24 32.3143V27.4629C3.24 25.9886 4.08 24.5657 5.41714 23.3829L8.33143 28.2857C8.86286 29.1943 10.1143 29.3486 10.8686 28.6114L14.5543 24.8914L18.2571 28.5943C19.0114 29.3314 20.2457 29.1772 20.7943 28.2686L23.7086 23.3657C25.0457 24.5486 25.8857 25.9714 25.8857 27.4457V32.3143H25.8686Z" fill="#F160E3"/>
<path d="M14.555 14.5371C18.5493 14.5371 21.8407 11.2629 21.8407 7.26857C21.8407 3.27428 18.5664 0 14.555 0C10.5607 0 7.28644 3.27428 7.28644 7.26857C7.28644 11.2629 10.5436 14.5371 14.555 14.5371ZM14.555 3.22286C16.8007 3.22286 18.6007 5.02286 18.6007 7.26857C18.6007 9.51428 16.8007 11.3143 14.555 11.3143C12.3093 11.3143 10.5264 9.51428 10.5264 7.26857C10.5264 5.02286 12.2922 3.22286 14.555 3.22286Z" fill="#F160E3"/>
<path d="M21.0162 30.6855H19.4047C17.2447 30.6855 17.2447 33.9255 19.4047 33.9255H21.0162C23.159 33.9255 23.159 30.6855 21.0162 30.6855Z" fill="#F160E3"/>
</svg>
