<svg width="67" height="67" viewBox="0 0 67 67" fill="none" xmlns="http://www.w3.org/2000/svg">
<path d="M15.8337 5.36499V10.3302C17.8257 11.7081 19.1055 14.3001 19.1055 17.1427C19.1055 18.9368 18.595 20.6301 17.7186 21.9826C18.1721 22.1592 18.6485 22.3555 19.0469 22.5285L35.0578 19.5471L35.8322 26.7237L21.2089 29.7621C21.0961 31.89 20.8883 33.9839 20.5168 36.51H64.5139V5.36499H15.8337ZM12.5625 11.6462C10.3909 11.6462 8.37475 13.9686 8.37475 17.1429C8.37475 20.3171 10.3909 22.6392 12.5625 22.6392C14.7341 22.6392 16.7503 20.3171 16.7503 17.1429C16.7503 13.9686 14.7341 11.6462 12.5625 11.6462ZM32.9891 22.3282L18.7789 24.9741C16.9154 24.2411 18.1303 24.577 15.9694 23.8596C14.9911 24.5753 13.8325 24.9944 12.5625 24.9944C11.4371 24.9944 10.3994 24.6643 9.49674 24.0915C8.37266 24.5579 7.18642 25.1501 6.12895 25.7474C4.42882 26.7076 3.0247 27.4762 2.48608 27.8454V44.885H5.10379V30.3594H7.45874V64.7757H11.385V42.6602H13.74V64.7757H17.1429V42.2888L17.163 42.181C18.408 35.5542 18.8103 32.0545 18.9245 27.8314L33.2615 24.8523L32.9891 22.3282ZM20.1449 38.8655C20.0203 39.6091 19.8844 40.3887 19.7332 41.2205H62.5508V38.8655H20.1449ZM27.2188 45.1462C25.0472 45.1462 23.031 47.4686 23.031 50.6428C23.031 53.0242 24.1656 54.9259 25.6495 55.7274C26.1205 55.5099 26.6286 55.3733 27.1779 55.3543C27.7842 55.3334 28.3531 55.4547 28.8859 55.671C30.3212 54.8398 31.4065 52.9714 31.4065 50.6428C31.4065 47.4686 29.3904 45.1462 27.2188 45.1462ZM41.875 45.1462C39.7034 45.1462 37.6872 47.4686 37.6872 50.6428C37.6872 53.0242 38.8218 54.9259 40.3057 55.7274C40.7767 55.5099 41.2848 55.3733 41.8342 55.3543C42.4405 55.3334 43.0093 55.4547 43.5422 55.671C44.9774 54.8398 46.0628 52.9714 46.0628 50.6428C46.0628 47.4686 44.0466 45.1462 41.875 45.1462ZM56.5313 45.1462C54.3596 45.1462 52.3435 47.4686 52.3435 50.6428C52.3435 53.0242 53.478 54.9259 54.962 55.7274C55.433 55.5099 55.9411 55.3733 56.4904 55.3543C57.0967 55.3334 57.6655 55.4547 58.1984 55.671C59.6337 54.8398 60.719 52.9714 60.719 50.6428C60.719 47.4686 58.7029 45.1462 56.5313 45.1462ZM27.2596 57.7082C26.7566 57.7256 26.094 58.0916 25.3883 58.8578C24.6826 59.624 23.9886 60.7226 23.4091 61.8362C22.856 62.8987 22.4133 63.9509 22.0926 64.7757H33.26C32.8622 63.9334 32.3259 62.8718 31.6723 61.8037C30.979 60.6707 30.166 59.561 29.3603 58.7996C28.5546 58.0381 27.8161 57.689 27.2596 57.7082ZM41.9158 57.7082C41.4128 57.7256 40.7503 58.0916 40.0445 58.8578C39.3388 59.624 38.6449 60.7226 38.0653 61.8362C37.5123 62.8987 37.0696 63.9509 36.7489 64.7757H47.9163C47.5184 63.9334 46.9822 62.8718 46.3285 61.8037C45.6353 60.6707 44.8222 59.561 44.0165 58.7996C43.2108 58.0381 42.4723 57.689 41.9158 57.7082ZM56.5721 57.7082C56.0691 57.7256 55.4065 58.0916 54.7008 58.8578C53.9951 59.624 53.3011 60.7226 52.7215 61.8362C52.1685 62.8987 51.7258 63.9509 51.4051 64.7757H62.5725C62.1747 63.9334 61.6384 62.8718 60.9848 61.8037C60.2915 60.6707 59.4785 59.561 58.6728 58.7996C57.8671 58.0381 57.1285 57.689 56.5721 57.7082Z" fill="white"/>
</svg>
