<svg width="62" height="62" viewBox="0 0 62 62" fill="none" xmlns="http://www.w3.org/2000/svg">
<g clip-path="url(#clip0_1_107)">
<path d="M18.5568 37.8429C18.1303 37.9028 17.7416 38.1199 17.4669 38.4516C17.1922 38.7833 17.0513 39.2057 17.072 39.6359C17.0928 40.0661 17.2735 40.473 17.5788 40.7769C17.8841 41.0807 18.2919 41.2594 18.7222 41.278H44.4397C44.8646 41.234 45.2581 41.0341 45.5442 40.7169C45.8303 40.3996 45.9886 39.9876 45.9886 39.5605C45.9886 39.1333 45.8303 38.7213 45.5442 38.4041C45.2581 38.0868 44.8646 37.8869 44.4397 37.8429H18.5568ZM11.8519 30.991C11.5096 30.991 11.175 31.0928 10.8907 31.2833C10.6063 31.4739 10.385 31.7447 10.2549 32.0613C10.1248 32.3779 10.0917 32.726 10.1598 33.0615C10.2279 33.3969 10.3942 33.7045 10.6375 33.9453C10.8809 34.186 11.1903 34.349 11.5264 34.4135C11.8626 34.4781 12.2103 34.4413 12.5255 34.3077C12.8407 34.1742 13.1091 33.9501 13.2966 33.6637C13.4841 33.3773 13.5823 33.0417 13.5786 32.6994C13.5787 32.4735 13.5339 32.2498 13.4469 32.0414C13.3599 31.8329 13.2324 31.6437 13.0718 31.4848C12.9112 31.326 12.7207 31.2005 12.5113 31.1157C12.3019 31.031 12.0778 30.9886 11.8519 30.991ZM30.5522 30.991C30.3124 30.9806 30.0731 31.0204 29.8495 31.1077C29.6259 31.195 29.423 31.328 29.2536 31.4981C29.0843 31.6683 28.9523 31.8718 28.8661 32.0959C28.7799 32.3199 28.7413 32.5594 28.7528 32.7992C28.7644 33.0389 28.8258 33.2736 28.9331 33.4883C29.0405 33.703 29.1914 33.893 29.3763 34.0461C29.5611 34.1992 29.7759 34.3121 30.0069 34.3775C30.2378 34.4429 30.4799 34.4595 30.7176 34.4261H34.9977C35.4226 34.3821 35.8161 34.1822 36.1022 33.865C36.3883 33.5478 36.5466 33.1357 36.5466 32.7086C36.5466 32.2814 36.3883 31.8694 36.1022 31.5522C35.8161 31.2349 35.4226 31.035 34.9977 30.991H30.5522ZM18.5568 30.991C18.317 30.9806 18.0777 31.0204 17.8541 31.1077C17.6305 31.195 17.4276 31.328 17.2582 31.4981C17.0889 31.6683 16.9569 31.8718 16.8707 32.0959C16.7845 32.3199 16.7459 32.5594 16.7574 32.7992C16.769 33.0389 16.8304 33.2736 16.9377 33.4883C17.0451 33.703 17.196 33.893 17.3809 34.0461C17.5657 34.1992 17.7805 34.3121 18.0115 34.3775C18.2424 34.4429 18.4845 34.4595 18.7222 34.4261H23.8657C24.2906 34.3821 24.6841 34.1822 24.9701 33.865C25.2562 33.5478 25.4146 33.1357 25.4146 32.7086C25.4146 32.2814 25.2562 31.8694 24.9701 31.5522C24.6841 31.2349 24.2906 31.035 23.8657 30.991H18.5568ZM10.1435 29.2643H51.2916C51.5182 29.2617 51.743 29.3048 51.9526 29.3909C52.1622 29.4771 52.3524 29.6045 52.5118 29.7656C52.6712 29.9267 52.7965 30.1182 52.8804 30.3287C52.9643 30.5392 53.0049 30.7645 53 30.991V42.9864C53.0049 43.213 52.9643 43.4382 52.8804 43.6487C52.7965 43.8593 52.6712 44.0508 52.5118 44.2119C52.3524 44.373 52.1622 44.5004 51.9526 44.5865C51.743 44.6726 51.5182 44.7157 51.2916 44.7132H22.7084C22.3008 44.584 21.8596 44.6123 21.4719 44.7925C21.0842 44.9728 20.7781 45.2919 20.6142 45.6868L18.7222 49.3607L16.8117 45.6868C16.6512 45.3851 16.4097 45.1341 16.1144 44.9621C15.8191 44.7901 15.4817 44.7039 15.1401 44.7132H14.9564H10.1435C9.91691 44.7157 9.69212 44.6726 9.4825 44.5865C9.27289 44.5004 9.08273 44.373 8.92335 44.2119C8.76397 44.0508 8.63861 43.8593 8.55474 43.6487C8.47087 43.4382 8.43019 43.213 8.43513 42.9864V30.991C8.43019 30.7645 8.47087 30.5392 8.55474 30.3287C8.63861 30.1182 8.76397 29.9267 8.92335 29.7656C9.08273 29.6045 9.27289 29.4771 9.4825 29.3909C9.69212 29.3048 9.91691 29.2617 10.1435 29.2643ZM10.1435 25.8475C8.78234 25.8571 7.47965 26.4021 6.51713 27.3646C5.55461 28.3272 5.00962 29.6298 5 30.991V42.9864C5.0048 44.3508 5.54767 45.6582 6.51071 46.6246C7.47374 47.5911 8.77918 48.1386 10.1435 48.1483H14.1848L17.1424 54.045C17.2878 54.3263 17.5078 54.5622 17.7784 54.7269C18.0489 54.8916 18.3595 54.9787 18.6762 54.9787C18.9929 54.9787 19.3036 54.8916 19.5741 54.7269C19.8446 54.5622 20.0646 54.3263 20.2101 54.045L23.1676 48.1483H51.2916C52.6575 48.1434 53.9657 47.5975 54.9298 46.6299C55.8938 45.6624 56.4351 44.3523 56.4351 42.9864V30.991C56.4303 29.6315 55.8894 28.3288 54.9298 27.3658C53.9702 26.4028 52.6694 25.8572 51.31 25.8475H10.1435ZM48.4076 12.6213L48.8117 13.448C48.9344 13.7 49.1178 13.9176 49.3455 14.0812C49.5731 14.2447 49.8379 14.3491 50.116 14.3848L51.0344 14.5318L50.3548 15.1747C50.1578 15.3679 50.0099 15.6055 49.9236 15.8676C49.8373 16.1296 49.8151 16.4086 49.8588 16.681L50.0057 17.5995L49.1975 17.177C48.9483 17.0566 48.6751 16.9941 48.3984 16.9941C48.1217 16.9941 47.8485 17.0566 47.5993 17.177L46.791 17.6179L46.938 16.6994C46.9783 16.4257 46.9563 16.1464 46.8736 15.8824C46.7909 15.6184 46.6497 15.3765 46.4604 15.1747L45.7807 14.4583L46.6992 14.3481C46.9767 14.3108 47.2408 14.2058 47.4683 14.0424C47.6957 13.8791 47.8795 13.6623 48.0034 13.4112L48.4076 12.6213ZM30.7176 12.6213L31.1217 13.448C31.2443 13.7 31.4278 13.9176 31.6554 14.0812C31.8831 14.2447 32.1479 14.3491 32.4259 14.3848L33.3261 14.5318L32.6648 15.1747C32.4677 15.3679 32.3199 15.6055 32.2336 15.8676C32.1473 16.1296 32.1251 16.4086 32.1688 16.681L32.3157 17.5995L31.4891 17.177C31.2452 17.0498 30.9742 16.9834 30.6992 16.9834C30.4242 16.9834 30.1532 17.0498 29.9093 17.177L29.0643 17.6179L29.2296 16.6994C29.2819 16.4256 29.2657 16.1431 29.1824 15.877C29.099 15.611 28.9512 15.3697 28.752 15.1747L28.0907 14.4583L29.0092 14.3481C29.2833 14.3009 29.5432 14.192 29.7691 14.0297C29.995 13.8674 30.1812 13.6559 30.3134 13.4112L30.7176 12.6213ZM13.0276 12.6213L13.4317 13.4663C13.5503 13.7195 13.7298 13.9393 13.9543 14.106C14.1787 14.2727 14.4409 14.3811 14.7176 14.4216L15.6361 14.5501L14.9747 15.1931C14.7704 15.3854 14.6165 15.6251 14.5268 15.8911C14.4371 16.157 14.4143 16.4409 14.4604 16.7178L14.6073 17.6179L13.7991 17.1954C13.5552 17.0682 13.2842 17.0018 13.0092 17.0018C12.7341 17.0018 12.4632 17.0682 12.2193 17.1954L11.3743 17.6362L11.5396 16.7178C11.58 16.4441 11.558 16.1648 11.4752 15.9008C11.3925 15.6368 11.2513 15.3948 11.062 15.1931L10.3823 14.4583L11.3192 14.3481C11.59 14.2983 11.8462 14.1882 12.0688 14.0261C12.2914 13.8639 12.4746 13.6538 12.6051 13.4112L13.0276 12.6213ZM48.4443 7.11042C48.1249 7.10474 47.8103 7.18974 47.5372 7.35556C47.2641 7.52138 47.0436 7.76122 46.9013 8.04727L45.4133 11.0783L41.9414 11.5743C41.6252 11.6115 41.3257 11.7363 41.0766 11.9347C40.8276 12.1331 40.6389 12.3971 40.532 12.697C40.425 12.9969 40.404 13.3207 40.4712 13.6319C40.5385 13.9431 40.6914 14.2294 40.9127 14.4583L43.411 16.9198L42.8048 20.355C42.75 20.6704 42.7839 20.9949 42.9028 21.2921C43.0218 21.5894 43.221 21.8477 43.4782 22.0383C43.7355 22.2288 44.0407 22.3441 44.3597 22.3713C44.6787 22.3984 44.999 22.3363 45.2847 22.1919L48.3892 20.557L51.2916 22.1001C51.5977 22.2532 51.9405 22.3178 52.2813 22.2865C52.6221 22.2552 52.9474 22.1294 53.2206 21.9231C53.4937 21.7168 53.7037 21.4384 53.827 21.1191C53.9504 20.7998 53.982 20.4525 53.9185 20.1162L53.3858 16.9566L55.9024 14.5318C56.138 14.311 56.3062 14.028 56.3875 13.7156C56.4688 13.4031 56.4599 13.074 56.3619 12.7664C56.2638 12.4588 56.0806 12.1853 55.8335 11.9776C55.5864 11.7698 55.2854 11.6363 54.9656 11.5926L51.4937 11.0783L49.969 7.93705C49.828 7.65384 49.6104 7.41588 49.3408 7.25026C49.0713 7.08464 48.7607 6.998 48.4443 7.0002V7.11042ZM30.7176 7.0002C30.3977 6.99229 30.0822 7.07636 29.8087 7.24243C29.5352 7.4085 29.3151 7.64959 29.1745 7.93705L27.5947 11.0783L24.1412 11.5743C23.8341 11.6283 23.5477 11.7653 23.3129 11.9705C23.0781 12.1757 22.904 12.4413 22.8094 12.7384C22.7148 13.0355 22.7033 13.3528 22.7761 13.656C22.849 13.9592 23.0034 14.2366 23.2227 14.4583L25.721 16.9198L25.0964 20.355C25.0416 20.6704 25.0755 20.9949 25.1945 21.2921C25.3134 21.5894 25.5126 21.8477 25.7699 22.0383C26.0271 22.2288 26.3323 22.3441 26.6513 22.3713C26.9703 22.3984 27.2906 22.3363 27.5763 22.1919L30.7176 20.5754L33.6383 22.1185C33.9416 22.2602 34.2777 22.3165 34.6106 22.2811C34.9434 22.2457 35.2603 22.1201 35.5269 21.9177C35.7935 21.7154 35.9998 21.4441 36.1234 21.133C36.2471 20.822 36.2834 20.4831 36.2285 20.1529L35.6958 16.9749L38.2124 14.5501C38.448 14.3294 38.6161 14.0464 38.6975 13.7339C38.7788 13.4215 38.7699 13.0924 38.6719 12.7848C38.5738 12.4772 38.3906 12.2037 38.1435 11.9959C37.8964 11.7882 37.5954 11.6547 37.2755 11.611L33.8037 11.0966L32.2606 7.95542C32.1227 7.66452 31.9037 7.41964 31.63 7.25018C31.3563 7.08073 31.0394 6.99393 30.7176 7.0002ZM13.0276 7.0002C12.705 6.991 12.3866 7.07433 12.1099 7.24035C11.8332 7.40637 11.6098 7.64813 11.4661 7.93705L9.95982 11.0783L6.48794 11.5743C6.17631 11.6201 5.8834 11.7511 5.64159 11.953C5.39978 12.1548 5.21849 12.4196 5.11774 12.7181C5.017 13.0165 5.00072 13.337 5.07071 13.6441C5.1407 13.9512 5.29424 14.233 5.51435 14.4583L8.01263 16.9382L7.4248 20.3733C7.36996 20.6888 7.4039 21.0132 7.52282 21.3105C7.64174 21.6077 7.84096 21.8661 8.09822 22.0566C8.35549 22.2472 8.66067 22.3625 8.97968 22.3896C9.29868 22.4168 9.61895 22.3547 9.90471 22.2103L13.0092 20.5754L15.8932 22.1185C16.1978 22.2699 16.5384 22.3339 16.8772 22.3032C17.216 22.2725 17.5395 22.1483 17.8119 21.9445C18.0842 21.7408 18.2947 21.4653 18.4197 21.149C18.5447 20.8327 18.5795 20.4878 18.5201 20.1529L17.9874 16.9749L20.504 14.5501C20.7396 14.3294 20.9078 14.0464 20.9891 13.7339C21.0704 13.4215 21.0615 13.0924 20.9635 12.7848C20.8654 12.4772 20.6822 12.2037 20.4351 11.9959C20.188 11.7882 19.887 11.6547 19.5672 11.611L16.1137 11.0966L14.589 7.95542C14.4489 7.67013 14.2319 7.42958 13.9626 7.26083C13.6932 7.09208 13.3821 7.00182 13.0643 7.0002H13.0276Z" fill="#FB0000"/>
</g>
<defs>
<clipPath id="clip0_1_107">
<rect width="51.4351" height="48" fill="white" transform="translate(5 7)"/>
</clipPath>
</defs>
</svg>
