<svg width="67" height="67" viewBox="0 0 67 67" fill="none" xmlns="http://www.w3.org/2000/svg">
<path d="M33.5 28.6425C32.3694 28.6425 31.3016 28.3703 30.4013 27.8888C30.0872 27.7213 29.7731 28.0772 29.9616 28.3703C30.7153 29.5219 32.0134 30.2966 33.5 30.2966C34.9866 30.2966 36.2847 29.5219 37.0384 28.3703C37.2269 28.0772 36.8919 27.7422 36.5987 27.8888C35.6984 28.3703 34.6516 28.6425 33.5 28.6425ZM25.5019 21.5238C25.8159 20.2256 26.9884 19.2625 28.3913 19.2625C29.8359 19.2625 31.0503 20.2885 31.3225 21.6703C31.3384 21.7417 31.3379 21.8157 31.3209 21.8869C31.3039 21.958 31.271 22.0243 31.2246 22.0808C31.1782 22.1373 31.1195 22.1825 31.053 22.213C30.9866 22.2434 30.914 22.2583 30.8409 22.2566H30.6734C30.7153 22.0891 30.7363 21.9216 30.7363 21.7541C30.7363 20.7072 29.8988 19.8488 28.8309 19.8488C28.5379 19.8493 28.2489 19.9172 27.9863 20.0472C27.7237 20.1773 27.4945 20.3659 27.3164 20.5987C27.1383 20.8314 27.0161 21.1019 26.9592 21.3894C26.9024 21.6769 26.9124 21.9736 26.9884 22.2566H26.0672C25.6903 22.2566 25.4181 21.9006 25.5019 21.5238Z" fill="white"/>
<path d="M29.9197 21.7331C29.9197 21.126 29.4381 20.6444 28.8309 20.6444C28.6843 20.6421 28.5387 20.6706 28.4038 20.7281C28.4549 20.7732 28.491 20.8327 28.5074 20.8988C28.5238 20.9648 28.5196 21.0343 28.4955 21.098C28.4714 21.1617 28.4285 21.2165 28.3725 21.2551C28.3164 21.2938 28.2499 21.3145 28.1819 21.3144C28.1261 21.3143 28.0712 21.3003 28.0222 21.2736C27.9732 21.2469 27.9316 21.2084 27.9013 21.1615C27.8033 21.3224 27.7487 21.5059 27.7428 21.6942C27.7369 21.8824 27.78 22.069 27.8678 22.2356H29.7941C29.8778 22.0891 29.9197 21.9216 29.9197 21.7331ZM41.5191 21.5238C41.205 20.2256 40.0325 19.2625 38.6297 19.2625C37.1641 19.2625 35.9706 20.2885 35.6984 21.6703C35.6356 21.9844 35.8659 22.2566 36.18 22.2566H36.3266C36.2993 22.1222 36.2852 21.9854 36.2847 21.8483C36.2819 21.5973 36.3292 21.3483 36.424 21.1159C36.5188 20.8834 36.659 20.6723 36.8365 20.4948C37.014 20.3173 37.2251 20.1771 37.4576 20.0823C37.69 19.9875 37.939 19.9402 38.19 19.943C38.4747 19.9438 38.7556 20.0082 39.0123 20.1314C39.2689 20.2547 39.4948 20.4338 39.6733 20.6555C39.8519 20.8772 39.9787 21.136 40.0445 21.413C40.1102 21.69 40.1133 21.9782 40.0534 22.2566H40.9537C41.3306 22.2566 41.6028 21.9006 41.5191 21.5238Z" fill="white"/>
<path d="M37.7922 20.7176C37.9989 20.6319 38.2272 20.6125 38.4454 20.662C38.6637 20.7116 38.8612 20.8277 39.0106 20.9944C39.16 21.161 39.2539 21.3699 39.2795 21.5923C39.305 21.8146 39.2609 22.0394 39.1531 22.2356H37.2269C37.1355 22.0628 37.0923 21.8686 37.1019 21.6733C37.1115 21.478 37.1734 21.289 37.2813 21.1259C37.3034 21.171 37.3353 21.2105 37.3747 21.2416C37.414 21.2727 37.4599 21.2946 37.5089 21.3055C37.5578 21.3165 37.6086 21.3164 37.6575 21.3051C37.7064 21.2938 37.7522 21.2717 37.7914 21.2404C37.8306 21.209 37.8622 21.1693 37.884 21.1241C37.9058 21.0789 37.9171 21.0294 37.9172 20.9792C37.9173 20.929 37.9061 20.8795 37.8845 20.8342C37.8628 20.7889 37.8313 20.7491 37.7922 20.7176Z" fill="white"/>
<path d="M24.277 5.39352C24.9113 4.38123 25.7929 3.54712 26.8387 2.96982C27.8845 2.39251 29.0601 2.09102 30.2547 2.09377C31.266 2.09377 32.1872 2.30314 33.0226 2.65071L33.0603 2.66536C33.1988 2.72651 33.3486 2.75809 33.5 2.75809C33.6514 2.75809 33.8012 2.72651 33.9397 2.66536L33.9523 2.66117C34.829 2.28845 35.7717 2.0955 36.7244 2.09377C39.2997 2.09377 41.5191 3.47564 42.7732 5.48774L42.7858 5.50867C43.1564 6.12005 43.7866 6.61836 44.5466 6.86961L44.5697 6.87799C45.4784 7.19205 46.3389 7.69455 47.0759 8.37502H61.4725C62.2053 8.37502 62.7706 8.96127 62.7706 9.67314V51.0038C62.7763 51.175 62.7474 51.3456 62.6857 51.5054C62.6241 51.6652 62.5309 51.811 62.4117 51.9341C62.2925 52.0571 62.1498 52.155 61.9921 52.2218C61.8343 52.2885 61.6648 52.3229 61.4935 52.3228H58.4073C58.5385 53.3599 58.6041 54.4138 58.6041 55.4844V60.7188C58.6041 63.0261 56.7239 64.9063 54.4166 64.9063H10.4688C9.91346 64.9063 9.3809 64.6857 8.98825 64.293C8.59559 63.9004 8.375 63.3678 8.375 62.8125V55.4844C8.375 54.4124 8.44061 53.3585 8.57181 52.3228H5.48563C4.77375 52.3228 4.1875 51.7366 4.1875 51.0247V9.67314C4.1875 8.96127 4.77375 8.37502 5.48563 8.37502H19.9074C20.636 7.70502 21.4882 7.19624 22.4115 6.87799C23.1653 6.61627 23.8353 6.08864 24.2749 5.39352M36.8626 34.5176C38.3774 34.2316 39.7645 33.4779 40.8285 32.3624C41.8926 31.2469 42.58 29.8258 42.7942 28.2991L42.9575 25.6233C42.9732 25.3723 43.0788 25.1354 43.2549 24.9559C43.431 24.7763 43.6658 24.6662 43.9164 24.6455C44.1691 24.6246 44.4119 24.5667 44.6451 24.4718C44.7528 24.4058 44.8664 24.3497 44.9842 24.3043C45.3458 24.0878 45.6461 23.7826 45.8568 23.4177C46.0675 23.0527 46.1816 22.64 46.1883 22.2187C46.195 21.7973 46.0941 21.3812 45.8951 21.0098C45.6961 20.6383 45.4057 20.3237 45.0512 20.0958C44.8857 20.0376 44.7281 19.9588 44.5822 19.8613C44.4649 19.8156 44.3437 19.7806 44.22 19.7566C44.1206 19.7364 44.0247 19.7019 43.9353 19.654C43.9285 19.6836 43.925 19.7138 43.9248 19.7441V22.0681C43.9248 24.2875 42.1242 26.0672 39.9257 26.0672H38.4392C37.8594 26.0685 37.2863 25.9431 36.7601 25.6997C36.2338 25.4563 35.7672 25.1008 35.3928 24.6581L35.5498 25.1669C35.7801 25.8997 35.2357 26.6534 34.461 26.6534H32.8279C32.0532 26.6534 31.5089 25.8997 31.7392 25.1669L31.8732 24.7335C31.1404 25.5521 30.0725 26.0672 28.8917 26.0672H27.4051C26.3445 26.0672 25.3273 25.6459 24.5773 24.8959C23.8274 24.1459 23.406 23.1288 23.406 22.0681V19.765C23.4035 19.709 23.3877 19.6544 23.3601 19.6057C23.3324 19.5569 23.2937 19.5154 23.2469 19.4845C23.0954 19.6094 22.9119 19.6892 22.7172 19.7148C22.6002 19.7287 22.4847 19.7525 22.3717 19.786C22.1641 19.9297 21.9321 20.0347 21.6871 20.0958C21.3341 20.3259 21.0456 20.6423 20.8491 21.0151C20.6526 21.3878 20.5546 21.8045 20.5642 22.2258C20.5738 22.6471 20.6909 23.0589 20.9042 23.4223C21.1176 23.7856 21.4202 24.0885 21.7834 24.3022C21.9718 24.358 22.1463 24.4348 22.3068 24.5325C22.5427 24.6065 22.7856 24.6435 23.0354 24.6435C23.3019 24.6429 23.5585 24.744 23.753 24.926C23.9475 25.1081 24.0653 25.3575 24.0823 25.6233L24.2624 28.364C24.4845 29.8779 25.1736 31.2847 26.2335 32.3882C27.2935 33.4917 28.6714 34.2368 30.1751 34.5197H30.2317V34.528C30.6532 34.6048 31.081 34.6439 31.5151 34.6453H35.5268C35.9455 34.6453 36.3573 34.609 36.7621 34.5364V34.5176H36.8626ZM43.4181 17.776L43.4537 16.8819C43.4707 16.3367 43.2721 15.8067 42.901 15.4069C42.5298 15.0071 42.016 14.7697 41.4709 14.7463H38.5125C37.3061 14.7487 36.1245 14.4037 35.109 13.7524C34.0936 13.1012 33.2871 12.1713 32.786 11.0739C32.7568 10.9967 32.7054 10.9299 32.6384 10.8819C32.5714 10.8338 32.4916 10.8067 32.4092 10.8038H29.6664C28.0429 10.8054 26.4858 11.4475 25.3331 12.5907C24.1805 13.7339 23.5256 15.2858 23.5107 16.9091L23.5694 17.7885C23.6122 17.781 23.6556 17.7768 23.6992 17.776H25.885C25.7692 17.7059 25.6811 17.5979 25.6359 17.4703C25.5957 17.3576 25.5923 17.235 25.6261 17.1203C25.66 17.0055 25.7294 16.9045 25.8243 16.8317C26.9815 16.0199 28.4008 15.671 29.8025 15.8539C29.9139 15.8676 30.019 15.9138 30.1044 15.9867C30.1899 16.0596 30.2522 16.1559 30.2834 16.2639C30.3146 16.3718 30.3134 16.4865 30.28 16.5938C30.2467 16.701 30.1825 16.7961 30.0956 16.8673C30.037 16.9135 29.9698 16.9476 29.8979 16.9678C29.8261 16.9879 29.7509 16.9936 29.6768 16.9845C28.5458 16.8421 27.4022 17.1241 26.4671 17.776H30.9875C31.6156 17.776 32.2019 18.0691 32.5997 18.5506C32.851 18.8647 33.2278 19.0531 33.6675 19.0531C34.1072 19.0531 34.4841 18.8647 34.7353 18.5506C35.1331 18.0691 35.7194 17.776 36.3475 17.776H40.5601L40.5036 17.7362C39.5776 17.1247 38.4648 16.8613 37.363 16.9929C37.2149 17.0046 37.0681 16.9584 36.9534 16.864C36.8387 16.7697 36.765 16.6345 36.7479 16.487C36.7308 16.3394 36.7716 16.191 36.8618 16.0729C36.9519 15.9549 37.0843 15.8763 37.2311 15.8539C38.6325 15.6751 40.0503 16.0236 41.2092 16.8317C41.2824 16.8893 41.3404 16.964 41.3783 17.0491C41.4162 17.1343 41.4328 17.2274 41.4266 17.3204C41.4204 17.4133 41.3916 17.5034 41.3428 17.5828C41.294 17.6622 41.2266 17.7285 41.1464 17.776H43.4181ZM34.4401 21.5866V20.8119C34.4326 20.6108 34.3479 20.4203 34.2037 20.2799C34.0594 20.1396 33.8667 20.0602 33.6654 20.0581C33.2467 20.0581 32.9117 20.3722 32.8907 20.791V21.4777C33.2048 20.793 34.2203 20.8286 34.4401 21.5866ZM30.3992 36.6658C30.6143 37.3158 31.0286 37.8815 31.5833 38.2828C32.138 38.6842 32.805 38.9006 33.4897 38.9015C34.1743 38.9025 34.8419 38.6878 35.3977 38.288C35.9535 37.8882 36.3693 37.3236 36.5862 36.6741C36.2372 36.716 35.8862 36.7376 35.533 36.739H31.5214C31.1445 36.739 30.7698 36.7146 30.3971 36.6658M41.6238 36.0711L43.3825 39.8525C43.571 40.2147 43.2778 40.6334 42.834 40.6334H40.6209C40.1142 40.6334 39.8818 41.1883 40.221 41.4919L40.6502 41.875H43.6296C44.5718 41.875 45.3255 42.6288 45.3255 43.5709V43.6421H45.3381V47.3188H45.3674C47.0968 47.3188 48.508 48.7299 48.508 50.4594V60.7188H54.4124V55.4844C54.4124 47.0047 49.3874 39.7101 42.1493 36.4145C41.9579 36.3271 41.7807 36.2114 41.6238 36.0711ZM45.3255 49.4146V51.6905C45.3377 51.8348 45.3198 51.9801 45.2729 52.1172C45.226 52.2542 45.1512 52.3801 45.0532 52.4867C44.9552 52.5934 44.8362 52.6786 44.7035 52.7368C44.5709 52.7951 44.4277 52.8253 44.2828 52.8253H38.9438C38.8749 52.8393 38.8047 52.8463 38.7344 52.8463C38.4057 52.8463 38.1754 53.1017 38.1691 53.3529V53.3655C38.1675 53.4556 38.1893 53.5446 38.2322 53.6238C38.2751 53.703 38.3377 53.7698 38.414 53.8178C38.5582 53.914 38.6762 54.0445 38.7574 54.1975C38.8387 54.3506 38.8807 54.5214 38.8797 54.6947C38.8786 54.868 38.8346 55.0383 38.7515 55.1904C38.6684 55.3425 38.5488 55.4716 38.4036 55.566C38.3336 55.6123 38.2758 55.6746 38.235 55.7479C38.1942 55.8211 38.1716 55.9031 38.1691 55.9869C38.1691 56.1753 38.257 56.3156 38.3847 56.3952C38.5346 56.4879 38.6586 56.617 38.7453 56.7704C38.832 56.9239 38.8786 57.0967 38.8807 57.273C38.8827 57.4492 38.8403 57.6231 38.7573 57.7786C38.6742 57.934 38.5533 58.066 38.4057 58.1623C38.3354 58.2083 38.2771 58.2706 38.236 58.3438C38.1948 58.4171 38.1718 58.4991 38.1691 58.5831C38.1691 58.7716 38.257 58.9118 38.3847 58.9914C38.5296 59.0811 38.6504 59.2048 38.7366 59.3517C38.8228 59.4987 38.8719 59.6644 38.8795 59.8346C38.8872 60.0048 38.8531 60.1743 38.7804 60.3284C38.7077 60.4825 38.5985 60.6165 38.4622 60.7188H46.4185V50.4594C46.4177 50.3186 46.3887 50.1793 46.3332 50.0499C46.2777 49.9205 46.1968 49.8035 46.0953 49.7059C45.9938 49.6083 45.8737 49.5321 45.7422 49.4817C45.6107 49.4313 45.4704 49.4077 45.3297 49.4125M43.2485 47.3167V43.6735H25.3344C24.8513 43.6735 24.388 43.8655 24.0463 44.2071C23.7047 44.5487 23.5128 45.012 23.5128 45.4951C23.5128 45.9782 23.7047 46.4415 24.0463 46.7831C24.388 47.1248 24.8513 47.3167 25.3344 47.3167H43.2485ZM37.7985 38.816C37.2852 39.512 36.6109 40.0732 35.8333 40.4516C35.0557 40.83 34.198 41.0143 33.3336 40.9888C32.4692 40.9633 31.6239 40.7287 30.87 40.3051C30.1161 39.8814 29.4761 39.2814 29.0047 38.5564V41.875H37.7985V38.816ZM26.5802 41.4919C26.9173 41.1862 26.6849 40.6334 26.1803 40.6334H23.9651C23.5233 40.6334 23.2281 40.2126 23.4165 39.8504L25.4202 36.0104C25.2462 36.1818 25.0435 36.3214 24.8214 36.4229C21.1643 38.0886 18.0637 40.7716 15.89 44.1516C13.7162 47.5316 12.5611 51.4657 12.5625 55.4844V60.7188H18.4669V50.4594C18.4669 49.5381 18.9149 48.7488 19.4782 48.2128C20.0225 47.6977 20.7826 47.3167 21.5866 47.3188V45.8113C21.5866 43.6338 23.3453 41.8541 25.5438 41.875H26.1509L26.5802 41.4919ZM21.5866 49.4125C21.3323 49.4343 21.0948 49.5482 20.9187 49.7329C20.8137 49.8241 20.728 49.9353 20.6665 50.0601C20.6051 50.1848 20.5691 50.3206 20.5606 50.4594V60.7188H28.5169C28.3806 60.6165 28.2714 60.4825 28.1987 60.3284C28.1259 60.1743 28.0919 60.0048 28.0996 59.8346C28.1072 59.6644 28.1563 59.4987 28.2425 59.3517C28.3287 59.2048 28.4495 59.0811 28.5944 58.9914C28.6631 58.9484 28.7192 58.8879 28.757 58.8162C28.7949 58.7446 28.8132 58.6641 28.81 58.5831C28.8072 58.4997 28.7844 58.4181 28.7436 58.3453C28.7028 58.2725 28.6452 58.2104 28.5755 58.1644C28.4273 58.0684 28.3058 57.9365 28.2223 57.7809C28.1388 57.6253 28.096 57.4511 28.0978 57.2746C28.0997 57.098 28.1462 56.9248 28.233 56.771C28.3199 56.6173 28.4441 56.488 28.5944 56.3952C28.6631 56.3521 28.7192 56.2917 28.757 56.22C28.7949 56.1483 28.8132 56.0679 28.81 55.9869C28.8072 55.9034 28.7844 55.8219 28.7436 55.7491C28.7028 55.6762 28.6452 55.6142 28.5755 55.5681C28.4298 55.4737 28.3098 55.3446 28.2265 55.1923C28.1431 55.04 28.0989 54.8694 28.0978 54.6958C28.0968 54.5222 28.139 54.351 28.2205 54.1977C28.3021 54.0445 28.4205 53.9139 28.565 53.8178C28.6413 53.7698 28.704 53.703 28.7469 53.6238C28.7898 53.5446 28.8116 53.4556 28.81 53.3655V53.3529C28.8037 53.1017 28.5734 52.8463 28.2447 52.8463C28.1744 52.8463 28.1042 52.8393 28.0353 52.8253H22.6669C22.3964 52.8255 22.1363 52.721 21.9411 52.5336C21.7459 52.3463 21.6309 52.0906 21.6201 51.8203H21.6075V49.4125H21.5866ZM17.7048 12.5625H8.375V48.1353H9.46585C11.3378 42.0381 15.4533 36.878 20.9815 33.6968C20.4098 32.529 20.0261 31.2783 19.8446 29.9909C19.5072 29.3292 19.2822 28.6159 19.1788 27.8804C17.0515 26.8817 15.6319 24.6665 15.6319 22.1875C15.6319 19.9932 16.7437 18.0042 18.4753 16.884C17.7696 15.5606 17.5 14.0482 17.7048 12.5625ZM57.5153 48.1353H58.6041V12.5625H49.2701C49.485 14.1203 49.178 15.7054 48.3971 17.0704C49.1984 17.6606 49.8491 18.4317 50.2963 19.3209C50.7434 20.21 50.9743 21.1922 50.9703 22.1875C50.9779 23.3019 50.6889 24.3982 50.133 25.3641C49.577 26.3299 48.7741 27.1305 47.8066 27.6836C47.7201 28.5014 47.4837 29.2963 47.1094 30.0286C46.9245 31.2964 46.5468 32.5286 45.9892 33.6822C51.5257 36.8633 55.6459 42.0299 57.5153 48.1353ZM28.7263 25.3134C30.6316 25.3134 32.181 23.7641 32.181 21.8588H32.16V20.3513C32.16 19.3253 31.3434 18.5088 30.3175 18.5088H25.9625C24.9366 18.5088 24.12 19.3253 24.12 20.3513V21.8588C24.12 23.7641 25.6694 25.3134 27.5747 25.3134H28.7263ZM39.7813 25.3134C41.6866 25.3134 43.236 23.7641 43.236 21.8588V20.3513C43.236 19.3253 42.4194 18.5088 41.3935 18.5088H37.0175C35.9916 18.5088 35.175 19.3253 35.175 20.3513V21.8588C35.175 23.7641 36.7244 25.3134 38.6297 25.3134H39.7813Z" fill="white" fill-opacity="0.97"/>
</svg>
