<svg width="15" height="22" viewBox="0 0 15 22" fill="none" xmlns="http://www.w3.org/2000/svg">
<path d="M13.0019 10.5178C12.8697 10.4121 12.7112 10.324 12.5702 10.2271C12.4733 10.1126 12.35 10.0333 12.2003 9.98044C11.2577 9.4431 10.1918 9.12598 9.13478 9.12598C8.91456 9.12598 8.71196 9.21407 8.5534 9.36382L7.47872 10.4473L6.39523 9.37263C6.24548 9.21407 6.03407 9.13479 5.81384 9.13479C4.74797 9.13479 3.66448 9.46071 2.72194 10.0069C2.5898 10.0509 2.4841 10.1302 2.39601 10.2271C2.24626 10.324 2.0877 10.4121 1.94676 10.5178C0.84565 11.381 0 12.6407 0 14.1118V16.6047C0 19.3531 2.23745 21.5817 4.98581 21.5817H9.97162C12.72 21.5817 14.9574 19.3531 14.9574 16.6047V14.1118C14.9486 12.6407 14.103 11.381 13.0019 10.5178ZM9.39905 10.8789C9.83949 10.9142 10.3064 11.0023 10.7556 11.1696L9.80425 12.764L8.6591 11.6189L9.39905 10.8789ZM6.30714 11.6189L5.16199 12.764L4.21063 11.1696C4.65988 11.0111 5.12675 10.9142 5.5672 10.8789L6.30714 11.6189ZM13.2926 16.6047C13.2926 18.4546 11.8215 19.9168 9.97162 19.9168H4.98581C3.12714 19.9168 1.66487 18.4546 1.66487 16.6047V14.1118C1.66487 13.3542 2.09651 12.6231 2.7836 12.0153L4.2811 14.5346C4.55418 15.0015 5.19722 15.0808 5.58481 14.702L7.47872 12.7905L9.38143 14.6932C9.76902 15.072 10.4033 14.9927 10.6851 14.5258L12.1826 12.0065C12.8697 12.6143 13.3014 13.3454 13.3014 14.103V16.6047H13.2926Z" fill="#4E4E4E"/>
<path d="M7.4791 7.46991C9.53156 7.46991 11.2229 5.78742 11.2229 3.73495C11.2229 1.68249 9.54037 0 7.4791 0C5.42663 0 3.74414 1.68249 3.74414 3.73495C3.74414 5.78742 5.41782 7.46991 7.4791 7.46991ZM7.4791 1.65606C8.63306 1.65606 9.55799 2.58099 9.55799 3.73495C9.55799 4.88891 8.63306 5.81384 7.4791 5.81384C6.32513 5.81384 5.40901 4.88891 5.40901 3.73495C5.40901 2.58099 6.31633 1.65606 7.4791 1.65606Z" fill="#4E4E4E"/>
<path d="M10.7991 15.7678H9.97111C8.86119 15.7678 8.86119 17.4327 9.97111 17.4327H10.7991C11.9002 17.4327 11.9002 15.7678 10.7991 15.7678Z" fill="#4E4E4E"/>
</svg>
